<?xml version="1.0" standalone="no"?><!DOCTYPE svg PUBLIC "-//W3C//DTD SVG 1.1//EN" "http://www.w3.org/Graphics/SVG/1.1/DTD/svg11.dtd"><svg t="1597413542023" class="icon" viewBox="0 0 1082 1024" version="1.1" xmlns="http://www.w3.org/2000/svg" p-id="1741" width="135.25" height="128" xmlns:xlink="http://www.w3.org/1999/xlink"><defs><style type="text/css"></style></defs><path d="M540.836 0L0 480.76l38.485 43.293L540.836 77.537l502.351 446.516 38.485-43.293L540.836 0z" fill="#00a7de" p-id="1742"></path><path d="M888.568 502.411v444.31c0 9.117-11.744 19.316-27.471 19.316H714.702v57.955h146.412c46.975 0 85.409-34.777 85.409-77.262V444.448h-57.955v57.964zM714.702 676.268H366.97v289.776H220.558c-15.71 0-27.471-10.199-27.471-19.316V444.446h-57.938V946.72c0 42.494 38.434 77.262 85.409 77.262h204.385V734.197h289.776v-57.93z" fill="#00a7de" p-id="1743"></path></svg>