<?xml version="1.0" standalone="no"?><!DOCTYPE svg PUBLIC "-//W3C//DTD SVG 1.1//EN" "http://www.w3.org/Graphics/SVG/1.1/DTD/svg11.dtd"><svg t="1597916096930" class="icon" viewBox="0 0 1024 1024" version="1.1" xmlns="http://www.w3.org/2000/svg" p-id="1796" width="128" height="128" xmlns:xlink="http://www.w3.org/1999/xlink"><defs><style type="text/css"></style></defs><path d="M390.4 823.466667V644.266667l-115.2 115.2c-4.266667-4.266667-8.533333-6.4-12.8-6.4-10.666667 0-19.2 8.533333-19.2 19.2 0 4.266667 2.133333 6.4 2.133333 10.666666 6.4-2.133333 12.8-6.4 17.066667-12.8-4.266667 6.4-8.533333 10.666667-12.8 17.066667-4.266667 8.533333-6.4 19.2-6.4 29.866667v4.266666a72.533333 72.533333 0 0 0 72.533333 68.266667c40.533333 2.133333 72.533333-29.866667 74.666667-66.133333z" fill="#1E1E1E" p-id="1797"></path><path d="M281.6 772.266667c0-6.4-2.133333-10.666667-6.4-12.8s-8.533333-6.4-12.8-6.4c-10.666667 0-19.2 8.533333-19.2 19.2 0 4.266667 2.133333 6.4 2.133333 10.666666 0 2.133333 2.133333 2.133333 2.133334 4.266667 2.133333 2.133333 2.133333 2.133333 4.266666 2.133333 2.133333 2.133333 6.4 2.133333 10.666667 2.133334 10.666667 0 19.2-8.533333 19.2-19.2z" fill="#1E1E1E" p-id="1798"></path><path d="M390.4 823.466667V644.266667l-115.2 115.2c-4.266667-4.266667-8.533333-6.4-12.8-6.4-10.666667 0-19.2 8.533333-19.2 19.2 0 4.266667 2.133333 6.4 2.133333 10.666666 6.4-2.133333 12.8-6.4 17.066667-12.8-4.266667 6.4-8.533333 10.666667-12.8 17.066667-4.266667 8.533333-6.4 19.2-6.4 29.866667v4.266666a72.533333 72.533333 0 0 0 72.533333 68.266667c40.533333 2.133333 72.533333-29.866667 74.666667-66.133333z" fill="#71E2BD" p-id="1799"></path><path d="M281.6 772.266667c0-6.4-2.133333-10.666667-6.4-12.8s-8.533333-6.4-12.8-6.4c-10.666667 0-19.2 8.533333-19.2 19.2 0 4.266667 2.133333 6.4 2.133333 10.666666 0 2.133333 2.133333 2.133333 2.133334 4.266667 2.133333 2.133333 2.133333 2.133333 4.266666 2.133333 2.133333 2.133333 6.4 2.133333 10.666667 2.133334 10.666667 0 19.2-8.533333 19.2-19.2z" fill="#71E2BD" p-id="1800"></path><path d="M640 817.066667V637.866667l115.2 115.2c4.266667-4.266667 8.533333-6.4 12.8-6.4 10.666667 0 19.2 8.533333 19.2 19.2 0 4.266667-2.133333 6.4-2.133333 10.666666-6.4-2.133333-12.8-6.4-17.066667-12.8 4.266667 6.4 8.533333 10.666667 12.8 17.066667 4.266667 8.533333 6.4 19.2 6.4 29.866667v4.266666a72.533333 72.533333 0 0 1-72.533333 68.266667c-40.533333 2.133333-72.533333-27.733333-74.666667-66.133333z" fill="#1E1E1E" p-id="1801"></path><path d="M748.8 768c0-6.4 2.133333-10.666667 6.4-12.8s8.533333-6.4 12.8-6.4c10.666667 0 19.2 8.533333 19.2 19.2 0 4.266667-2.133333 6.4-2.133333 10.666667 0 2.133333-2.133333 2.133333-2.133334 4.266666-2.133333 2.133333-2.133333 2.133333-4.266666 2.133334-2.133333 2.133333-6.4 2.133333-10.666667 2.133333-10.666667 0-19.2-8.533333-19.2-19.2z" fill="#1E1E1E" p-id="1802"></path><path d="M640 817.066667V637.866667l115.2 115.2c4.266667-4.266667 8.533333-6.4 12.8-6.4 10.666667 0 19.2 8.533333 19.2 19.2 0 4.266667-2.133333 6.4-2.133333 10.666666-6.4-2.133333-12.8-6.4-17.066667-12.8 4.266667 6.4 8.533333 10.666667 12.8 17.066667 4.266667 8.533333 6.4 19.2 6.4 29.866667v4.266666a72.533333 72.533333 0 0 1-72.533333 68.266667c-40.533333 2.133333-72.533333-27.733333-74.666667-66.133333z" fill="#71E2BD" p-id="1803"></path><path d="M748.8 768c0-6.4 2.133333-10.666667 6.4-12.8s8.533333-6.4 12.8-6.4c10.666667 0 19.2 8.533333 19.2 19.2 0 4.266667-2.133333 6.4-2.133333 10.666667 0 2.133333-2.133333 2.133333-2.133334 4.266666-2.133333 2.133333-2.133333 2.133333-4.266666 2.133334-2.133333 2.133333-6.4 2.133333-10.666667 2.133333-10.666667 0-19.2-8.533333-19.2-19.2z" fill="#71E2BD" p-id="1804"></path><path d="M640 206.933333V386.133333l115.2-115.2c4.266667 4.266667 8.533333 6.4 12.8 6.4 10.666667 0 19.2-8.533333 19.2-19.2 0-4.266667-2.133333-6.4-2.133333-10.666666-6.4 2.133333-12.8 6.4-17.066667 12.8 4.266667-6.4 8.533333-10.666667 12.8-17.066667 4.266667-8.533333 6.4-19.2 6.4-29.866667v-4.266666a72.533333 72.533333 0 0 0-72.533333-68.266667c-40.533333-2.133333-72.533333 27.733333-74.666667 66.133333z" fill="#1E1E1E" p-id="1805"></path><path d="M748.8 256c0 6.4 2.133333 10.666667 6.4 12.8 4.266667 4.266667 8.533333 6.4 12.8 6.4 10.666667 0 19.2-8.533333 19.2-19.2 0-4.266667-2.133333-6.4-2.133333-10.666667 0-2.133333-2.133333-2.133333-2.133334-4.266666-2.133333-2.133333-2.133333-2.133333-4.266666-2.133334-2.133333-2.133333-6.4-2.133333-10.666667-2.133333-10.666667 0-19.2 8.533333-19.2 19.2z" fill="#1E1E1E" p-id="1806"></path><path d="M640 206.933333V386.133333l115.2-115.2c4.266667 4.266667 8.533333 6.4 12.8 6.4 10.666667 0 19.2-8.533333 19.2-19.2 0-4.266667-2.133333-6.4-2.133333-10.666666-6.4 2.133333-12.8 6.4-17.066667 12.8 4.266667-6.4 8.533333-10.666667 12.8-17.066667 4.266667-8.533333 6.4-19.2 6.4-29.866667v-4.266666a72.533333 72.533333 0 0 0-72.533333-68.266667c-40.533333-2.133333-72.533333 27.733333-74.666667 66.133333z" fill="#71E2BD" p-id="1807"></path><path d="M748.8 256c0 6.4 2.133333 10.666667 6.4 12.8 4.266667 4.266667 8.533333 6.4 12.8 6.4 10.666667 0 19.2-8.533333 19.2-19.2 0-4.266667-2.133333-6.4-2.133333-10.666667 0-2.133333-2.133333-2.133333-2.133334-4.266666-2.133333-2.133333-2.133333-2.133333-4.266666-2.133334-2.133333-2.133333-6.4-2.133333-10.666667-2.133333-10.666667 0-19.2 8.533333-19.2 19.2z" fill="#71E2BD" p-id="1808"></path><path d="M377.6 198.4V377.6l-115.2-115.2c-4.266667 4.266667-8.533333 6.4-12.8 6.4-10.666667 0-19.2-8.533333-19.2-19.2 0-4.266667 2.133333-6.4 2.133333-10.666667 6.4 2.133333 12.8 6.4 17.066667 12.8-4.266667-6.4-8.533333-10.666667-12.8-17.066666-4.266667-8.533333-6.4-19.2-6.4-29.866667v-4.266667a72.533333 72.533333 0 0 1 72.533333-68.266666c40.533333-2.133333 72.533333 27.733333 74.666667 66.133333z" fill="#1E1E1E" p-id="1809"></path><path d="M268.8 249.6c0 6.4-2.133333 10.666667-6.4 12.8-4.266667 4.266667-8.533333 6.4-12.8 6.4-10.666667 0-19.2-8.533333-19.2-19.2 0-4.266667 2.133333-6.4 2.133333-10.666667 0-2.133333 2.133333-2.133333 2.133334-4.266666 2.133333-2.133333 2.133333-2.133333 4.266666-2.133334 2.133333-2.133333 6.4-2.133333 10.666667-2.133333 10.666667 0 19.2 8.533333 19.2 19.2z" fill="#1E1E1E" p-id="1810"></path><path d="M377.6 198.4V377.6l-115.2-115.2c-4.266667 4.266667-8.533333 6.4-12.8 6.4-10.666667 0-19.2-8.533333-19.2-19.2 0-4.266667 2.133333-6.4 2.133333-10.666667 6.4 2.133333 12.8 6.4 17.066667 12.8-4.266667-6.4-8.533333-10.666667-12.8-17.066666-4.266667-8.533333-6.4-19.2-6.4-29.866667v-4.266667a72.533333 72.533333 0 0 1 72.533333-68.266666c40.533333-2.133333 72.533333 27.733333 74.666667 66.133333z" fill="#71E2BD" p-id="1811"></path><path d="M268.8 249.6c0 6.4-2.133333 10.666667-6.4 12.8-4.266667 4.266667-8.533333 6.4-12.8 6.4-10.666667 0-19.2-8.533333-19.2-19.2 0-4.266667 2.133333-6.4 2.133333-10.666667 0-2.133333 2.133333-2.133333 2.133334-4.266666 2.133333-2.133333 2.133333-2.133333 4.266666-2.133334 2.133333-2.133333 6.4-2.133333 10.666667-2.133333 10.666667 0 19.2 8.533333 19.2 19.2z" fill="#71E2BD" p-id="1812"></path><path d="M403.2 403.2H202.666667c-49.066667-2.133333-87.466667-44.8-87.466667-93.866667s38.4-91.733333 87.466667-93.866666h14.933333v-8.533334-6.4c2.133333-49.066667 44.8-87.466667 93.866667-87.466666s91.733333 38.4 93.866666 87.466666v202.666667z m-194.133333-145.066667h-2.133334c-27.733333 2.133333-49.066667 23.466667-49.066666 51.2s21.333333 49.066667 46.933333 51.2h155.733333V204.8c-2.133333-27.733333-23.466667-49.066667-51.2-49.066667s-49.066667 21.333333-51.2 46.933334v2.133333c0 12.8 4.266667 25.6 12.8 34.133333l-29.866666 29.866667c-8.533333-4.266667-21.333333-10.666667-32-10.666667z" fill="#1E1E1E" p-id="1813"></path><path d="M253.866667 253.866667m-21.333334 0a21.333333 21.333333 0 1 0 42.666667 0 21.333333 21.333333 0 1 0-42.666667 0Z" fill="#1E1E1E" p-id="1814"></path><path d="M317.866667 906.666667c-49.066667 0-91.733333-38.4-93.866667-87.466667v-6.4-8.533333h-14.933333c-49.066667-2.133333-87.466667-44.8-87.466667-93.866667 0-49.066667 38.4-91.733333 87.466667-93.866667h202.666666v202.666667c-4.266667 49.066667-44.8 87.466667-93.866666 87.466667z m-68.266667-157.866667l29.866667 29.866667c-8.533333 8.533333-12.8 21.333333-12.8 34.133333v2.133333c2.133333 27.733333 23.466667 49.066667 51.2 49.066667s49.066667-21.333333 51.2-46.933333V661.333333H213.333333c-27.733333 2.133333-49.066667 23.466667-49.066666 51.2s21.333333 49.066667 46.933333 51.2h2.133333c14.933333-2.133333 27.733333-6.4 36.266667-14.933333z" fill="#1E1E1E" p-id="1815"></path><path d="M262.4 768m-21.333333 0a21.333333 21.333333 0 1 0 42.666666 0 21.333333 21.333333 0 1 0-42.666666 0Z" fill="#1E1E1E" p-id="1816"></path><path d="M710.4 906.666667c-49.066667 0-91.733333-38.4-93.866667-87.466667V618.666667h202.666667c49.066667 2.133333 87.466667 44.8 87.466667 93.866666s-38.4 91.733333-87.466667 93.866667h-14.933333v14.933333c-2.133333 46.933333-42.666667 85.333333-93.866667 85.333334zM661.333333 661.333333v155.733334c2.133333 27.733333 23.466667 49.066667 51.2 49.066666s49.066667-21.333333 51.2-46.933333v-2.133333c0-12.8-4.266667-25.6-12.8-34.133334l29.866667-29.866666c8.533333 8.533333 21.333333 12.8 34.133333 12.8h2.133334c27.733333-2.133333 49.066667-23.466667 49.066666-51.2s-21.333333-49.066667-46.933333-51.2H661.333333z" fill="#1E1E1E" p-id="1817"></path><path d="M768 768m-21.333333 0a21.333333 21.333333 0 1 0 42.666666 0 21.333333 21.333333 0 1 0-42.666666 0Z" fill="#1E1E1E" p-id="1818"></path><path d="M812.8 405.333333H618.666667V211.2v-6.4c2.133333-49.066667 44.8-87.466667 93.866666-87.466667s91.733333 38.4 93.866667 87.466667v14.933333h14.933333c49.066667 2.133333 87.466667 44.8 87.466667 93.866667s-38.4 91.733333-87.466667 93.866667c-4.266667-2.133333-6.4-2.133333-8.533333-2.133334zM661.333333 362.666667h155.733334c27.733333-2.133333 49.066667-23.466667 49.066666-51.2 0-27.733333-21.333333-49.066667-46.933333-51.2h-2.133333c-12.8 0-25.6 4.266667-34.133334 12.8l-29.866666-29.866667c8.533333-8.533333 12.8-21.333333 12.8-34.133333v-2.133334c-2.133333-27.733333-23.466667-49.066667-51.2-49.066666S661.333333 181.333333 661.333333 206.933333V362.666667z" fill="#1E1E1E" p-id="1819"></path><path d="M770.133333 253.866667m-23.466666 0a23.466667 23.466667 0 1 0 46.933333 0 23.466667 23.466667 0 1 0-46.933333 0Z" fill="#1E1E1E" p-id="1820"></path></svg>